<svg xmlns="http://www.w3.org/2000/svg" width="32" height="32"><path fill-rule="evenodd" d="M22.194 19.771c-.073 0-.146-.003-.219-.005a9.114 9.114 0 0 1-.235-.005c-.097-.005-.193-.013-.289-.02l-.219-.016a9.761 9.761 0 0 1-.646-.086c-.116-.019-.23-.038-.345-.06l-.216-.048c-.093-.021-.186-.041-.279-.064l-.224-.062-.264-.075c-.075-.023-.15-.049-.225-.074a9.195 9.195 0 0 1-.256-.088c-.075-.027-.149-.056-.223-.085a10.409 10.409 0 0 1-.468-.196 10.857 10.857 0 0 1-.702-.35c-.068-.038-.136-.075-.203-.115a9.69 9.69 0 0 1-.242-.145c-.064-.04-.13-.08-.194-.122a9.48 9.48 0 0 1-.24-.163l-.182-.127a8.765 8.765 0 0 1-.245-.186l-.164-.127c-.089-.072-.176-.148-.262-.223l-.132-.113a10.12 10.12 0 0 1-.796-.806c-.043-.048-.084-.098-.126-.147a9.798 9.798 0 0 1-.635-.834c-.038-.056-.077-.111-.113-.167a9.702 9.702 0 0 1-.267-.434c-.016-.026-.033-.053-.048-.08a9.737 9.737 0 0 1-.28-.528l-.074-.16a9.825 9.825 0 0 1-.392-.962c-.023-.066-.046-.13-.067-.196a9.664 9.664 0 0 1-.132-.44l-.038-.134a9.54 9.54 0 0 1-.132-.58l-.027-.15a10.065 10.065 0 0 1-.134-1.049l-.014-.212c-.008-.144-.011-.29-.013-.435 0-.056-.003-.112-.002-.168.001-.193.007-.385.02-.579a7.81 7.81 0 0 0-1.768 1.325c-3.043 3.043-3.043 7.995 0 11.038s7.995 3.042 11.038 0a7.81 7.81 0 0 0 1.324-1.768 9.877 9.877 0 0 1-.605.02l-.046.002Z" clip-rule="evenodd"/><path fill-rule="evenodd" d="M14.525 8.337a7.99 7.99 0 0 0-.044.26l-.03.183a7.73 7.73 0 0 0-.037.367c-.004.043-.01.086-.013.13a7.649 7.649 0 0 0-.018.496c0 .036.002.07.003.106.001.13.004.26.011.389.004.06.01.118.015.177.009.105.017.21.03.314.008.066.02.132.029.197.014.097.029.194.047.29.012.068.028.136.042.205a8.311 8.311 0 0 0 .12.482 7.726 7.726 0 0 0 .665 1.631c.034.063.068.125.104.187.048.083.1.164.15.245.038.06.074.118.113.176.056.084.116.165.175.246.038.053.076.107.116.16.068.088.14.173.212.259l.106.128a7.862 7.862 0 0 0 .714.714c.04.036.083.068.124.103.087.073.175.147.264.216.05.038.102.074.152.11.085.062.169.123.255.181.054.037.11.071.166.106.085.054.17.108.257.158.057.034.116.065.174.097a7.877 7.877 0 0 0 .443.225 7.706 7.706 0 0 0 1.214.45c.06.017.119.034.179.049.102.026.205.049.309.07a4.82 4.82 0 0 0 .501.09c.053.007.106.017.16.023.12.015.24.025.362.034.043.004.087.01.13.011.154.01.308.014.462.014l.035.001c.168 0 .336-.007.504-.018.034-.003.067-.008.101-.01a7.47 7.47 0 0 0 .393-.04l.186-.03c.086-.014.172-.028.257-.045a7.826 7.826 0 0 0-2.143-6.994 7.823 7.823 0 0 0-6.995-2.143Z" clip-rule="evenodd"/><path fill-rule="evenodd" d="M16 0C7.163 0 0 7.162 0 16c0 8.838 7.163 16 16 16s16-7.162 16-16c0-8.838-7.163-16-16-16Zm9.597 18.66v.003l-.162.586-.023.006a9.97 9.97 0 0 1-2.369 3.787 9.929 9.929 0 0 1-7.042 2.912c-2.55 0-5.1-.97-7.043-2.913-3.883-3.883-3.883-10.202 0-14.084a9.973 9.973 0 0 1 3.787-2.37l.006-.022.587-.162a9.985 9.985 0 0 1 9.705 2.554 9.983 9.983 0 0 1 2.554 9.703Z" clip-rule="evenodd"/></svg>